<?xml version="1.0" encoding="utf-8"?>
<svg viewBox="0 0 500 500" xmlns="http://www.w3.org/2000/svg">
  <g transform="matrix(1, 0, 0, 1, -220.924881, 12.426851)">
    <g>
      <g>
        <path d="M455.459,163.873c0.981,0,1.892,0.016,2.803-0.003c2.552-0.052,5.114-0.002,7.654-0.208 c3.895-0.316,7.037-2.112,9.292-5.335c1.774-2.534,2.872-5.379,3.643-8.356c0.285-1.099,0.272-1.102,1.39-1.103 c0.04,0,0.079,0,0.119,0c1.362-0.001,1.426,0.077,1.236,1.429c-0.049,0.35-0.081,0.705-0.09,1.059 c-0.089,3.267-0.157,6.534-0.262,9.8c-0.055,1.713-0.172,3.424-0.262,5.163c-14.811,0-29.604,0-44.434,0c0-0.803,0-1.568,0-2.411 c0.204-0.011,0.412-0.033,0.62-0.033c1.389-0.004,2.779-0.026,4.167,0.008c0.537,0.013,0.661-0.172,0.659-0.683 c-0.017-5.18-0.01-10.359-0.01-15.539c0-10.24,0-20.481,0-30.721c0-0.847-0.001-0.849-0.835-0.85 c-1.369-0.002-2.739-0.014-4.108,0.006c-0.416,0.006-0.562-0.128-0.54-0.548c0.032-0.593,0.008-1.188,0.008-1.873 c0.248,0,0.457,0,0.666,0c8.276,0,16.551,0.007,24.827-0.015c0.586-0.002,0.719,0.198,0.679,0.711 c-0.03,0.395-0.029,0.795-0.001,1.19c0.031,0.429-0.15,0.54-0.557,0.536c-2.024-0.017-4.049,0.007-6.073-0.018 c-0.49-0.006-0.639,0.132-0.639,0.632c0.012,15.519,0.01,31.039,0.012,46.558C455.424,163.442,455.443,163.617,455.459,163.873z" style="fill: rgb(133, 134, 197);"/>
        <g>
          <path d="M483.199,157.109c0-0.257-0.007-0.48,0.001-0.702c0.093-2.706,0.187-5.413,0.284-8.119 c0.008-0.236,0.04-0.472,0.066-0.708c0.046-0.418-0.029-0.664-0.559-0.646c-1.15,0.039-2.302,0.013-3.452,0.01 c-0.192,0-0.384-0.018-0.622-0.03c0-1.399,0-2.744,0-4.09c0-0.536-0.025-1.073,0.007-1.607c0.03-0.518-0.109-0.73-0.69-0.717 c-1.825,0.041-3.651,0.015-5.477,0.015c-0.214,0-0.428,0-0.673,0c0-0.882,0-1.705,0-2.568c8.52,0,17.021,0,25.563,0 c0,0.843,0,1.663,0,2.568c-0.758,0-1.505,0-2.253,0c-0.675,0-1.35,0.019-2.024-0.006c-0.421-0.016-0.531,0.156-0.56,0.556 c-0.098,1.356-0.172,2.72-0.381,4.061c-0.436,2.793-1.563,5.306-3.333,7.513c-1.525,1.902-3.436,3.33-5.608,4.42 C483.439,157.083,483.379,157.079,483.199,157.109z" style="fill: rgb(99, 102, 241);"/>
          <path d="M473.986,156.922c-0.752,0.789-1.495,1.586-2.264,2.358c-0.117,0.117-0.351,0.162-0.531,0.164 c-3.501,0.044-6.876-0.57-10.048-2.08c-1.143-0.544-2.202-1.262-3.324-1.856c-0.408-0.216-0.482-0.496-0.481-0.907 c0.01-5.278,0.007-10.556,0.007-15.834c0-6.667-0.001-13.334-0.001-20.001c0-0.237,0-0.474,0-0.758c1.466,0,2.898,0,4.398,0 c-0.066,1.148-0.13,2.287-0.197,3.427c-0.01,0.177-0.046,0.354-0.047,0.53c-0.041,6.027-0.117,12.054-0.101,18.08 c0.006,2.368,0.123,4.746,0.368,7.1c0.227,2.186,0.562,4.382,1.7,6.344c0.924,1.592,2.264,2.606,4.056,3.078 c2.032,0.535,4.061,0.513,6.107,0.155c0.073-0.013,0.152,0.012,0.228,0.02C473.9,156.802,473.943,156.862,473.986,156.922z" style="fill: rgb(99, 102, 241);"/>
          <path d="M454.498,111.7c2.208-2.126,4.619-3.83,7.311-5.106c2.44-1.157,5.037-1.862,7.72-2.114 c2.684-0.252,5.358-0.088,8.002,0.555c2.451,0.596,4.677,1.601,6.629,3.2c0.277,0.227,0.451,0.168,0.68-0.089 c0.721-0.805,1.451-1.604,2.221-2.362c0.211-0.207,0.566-0.341,0.868-0.368c0.628-0.055,1.265-0.017,2.032-0.017 c0,0.885-0.012,1.73,0.003,2.576c0.03,1.741,0.07,3.482,0.114,5.222c0.057,2.275,0.121,4.55,0.181,6.825 c0.005,0.196,0.001,0.392,0.001,0.697c-0.937,0-1.84,0.02-2.739-0.022c-0.134-0.006-0.297-0.283-0.375-0.465 c-0.755-1.767-1.373-3.604-2.263-5.3c-1.879-3.581-4.551-6.369-8.542-7.588c-2.248-0.686-4.547-0.667-6.85-0.226 c-1.826,0.35-3.452,1.086-4.724,2.462c-0.501,0.541-0.862,1.209-1.316,1.796c-0.139,0.18-0.373,0.405-0.566,0.407 c-2.718,0.025-5.436,0.016-8.154,0.011C454.681,111.796,454.631,111.757,454.498,111.7z" style="fill: rgb(99, 102, 241);"/>
        </g>
      </g>
      <g>
        <path id="XMLID_2809_" d="M 534.146 136.362 L 497.009 99.226 L 464.241 66.458 L 463.765 65.982 L 393.861 135.886 L 393.385 136.362 L 454.349 197.327 L 394.759 149.241 L 393.86 150.241 L 463.288 219.669 L 463.764 220.145 L 533.668 150.241 L 534.144 149.765 L 527.443 143.064 L 534.146 136.362 Z M 463.765 67.886 L 532.241 136.362 L 526.492 142.111 L 463.766 204.837 L 395.29 136.361 L 463.765 67.886 Z" style="fill: rgb(99, 102, 241);"/>
        <path id="XMLID_2806_" d="M528.832,136.362l-65.067-65.067l-65.067,65.067l65.067,65.067L528.832,136.362z M463.765,72.248l64.114,64.114l-64.114,64.114l-64.114-64.114L463.765,72.248z" style="fill: rgb(129, 130, 177);"/>
        <linearGradient id="XMLID_4_" gradientUnits="userSpaceOnUse" x1="444.4447" y1="168.4406" x2="444.4712" y2="168.4406">
          <stop offset="0" style="stop-color:#B27F2A"/>
          <stop offset="0.0576" style="stop-color:#B7862E"/>
          <stop offset="0.1404" style="stop-color:#C49939"/>
          <stop offset="0.2379" style="stop-color:#DAB84C"/>
          <stop offset="0.3333" style="stop-color:#F4DD62"/>
          <stop offset="0.5161" style="stop-color:#F4E38B"/>
          <stop offset="0.6613" style="stop-color:#F4DD62"/>
          <stop offset="1" style="stop-color:#B27F2A"/>
        </linearGradient>
        <path id="XMLID_2805_" fill="url(#XMLID_4_)" d="M444.445,168.445c0.011,0,0.021-0.003,0.026-0.009h-0.009L444.445,168.445z"/>
        <linearGradient id="XMLID_5_" gradientUnits="userSpaceOnUse" x1="490.782" y1="166.3215" x2="490.7905" y2="166.3215">
          <stop offset="0" style="stop-color:#B27F2A"/>
          <stop offset="0.0576" style="stop-color:#B7862E"/>
          <stop offset="0.1404" style="stop-color:#C49939"/>
          <stop offset="0.2379" style="stop-color:#DAB84C"/>
          <stop offset="0.3333" style="stop-color:#F4DD62"/>
          <stop offset="0.5161" style="stop-color:#F4E38B"/>
          <stop offset="0.6613" style="stop-color:#F4DD62"/>
          <stop offset="1" style="stop-color:#B27F2A"/>
        </linearGradient>
        <polygon id="XMLID_2788_" fill="url(#XMLID_5_)" points="490.79,166.319 490.786,166.319 490.782,166.324 &#9;&#9;&#9;"/>
      </g>
    </g>
  </g>
</svg>