<svg xmlns="http://www.w3.org/2000/svg" viewBox="5 70 1000 600" xml:space="preserve">
	<g transform="translate(142,142) scale(0.053)">
		<path fill="#FFF" d="M455.459 163.873c.981 0 1.892.016 2.803-.003 2.552-.052 5.114-.002 7.654-.208 3.895-.316 7.037-2.112 9.292-5.335 1.774-2.534 2.872-5.379 3.643-8.356.285-1.099.272-1.102 1.39-1.103h.119c1.362-.001 1.426.077 1.236 1.429-.049.35-.081.705-.09 1.059-.089 3.267-.157 6.534-.262 9.8-.055 1.713-.172 3.424-.262 5.163h-44.434v-2.411c.204-.011.412-.033.62-.033 1.389-.004 2.779-.026 4.167.008.537.013.661-.172.659-.683-.017-5.18-.01-10.359-.01-15.539V116.94c0-.847-.001-.849-.835-.85-1.369-.002-2.739-.014-4.108.006-.416.006-.562-.128-.54-.548.032-.593.008-1.188.008-1.873h.666c8.276 0 16.551.007 24.827-.015.586-.002.719.198.679.711a8.15 8.15 0 0 0-.001 1.19c.031.429-.15.54-.557.536-2.024-.017-4.049.007-6.073-.018-.49-.006-.639.132-.639.632.012 15.519.01 31.039.012 46.558.001.173.02.348.036.604z"></path>
		<g fill="#F2C16B">
			<path d="M483.199 157.109c0-.257-.007-.48.001-.702.093-2.706.187-5.413.284-8.119.008-.236.04-.472.066-.708.046-.418-.029-.664-.559-.646-1.15.039-2.302.013-3.452.01-.192 0-.384-.018-.622-.03v-4.09c0-.536-.025-1.073.007-1.607.03-.518-.109-.73-.69-.717-1.825.041-3.651.015-5.477.015h-.673v-2.568h25.563v2.568h-2.253c-.675 0-1.35.019-2.024-.006-.421-.016-.531.156-.56.556-.098 1.356-.172 2.72-.381 4.061-.436 2.793-1.563 5.306-3.333 7.513-1.525 1.902-3.436 3.33-5.608 4.42-.049.024-.109.02-.289.05zM473.986 156.922c-.752.789-1.495 1.586-2.264 2.358-.117.117-.351.162-.531.164-3.501.044-6.876-.57-10.048-2.08-1.143-.544-2.202-1.262-3.324-1.856-.408-.216-.482-.496-.481-.907.01-5.278.007-10.556.007-15.834l-.001-20.001v-.758h4.398c-.066 1.148-.13 2.287-.197 3.427-.01.177-.046.354-.047.53-.041 6.027-.117 12.054-.101 18.08.006 2.368.123 4.746.368 7.1.227 2.186.562 4.382 1.7 6.344.924 1.592 2.264 2.606 4.056 3.078 2.032.535 4.061.513 6.107.155.073-.013.152.012.228.02l.13.18zM454.498 111.7c2.208-2.126 4.619-3.83 7.311-5.106a22.966 22.966 0 0 1 7.72-2.114c2.684-.252 5.358-.088 8.002.555 2.451.596 4.677 1.601 6.629 3.2.277.227.451.168.68-.089a51.622 51.622 0 0 1 2.221-2.362c.211-.207.566-.341.868-.368.628-.055 1.265-.017 2.032-.017 0 .885-.012 1.73.003 2.576.03 1.741.07 3.482.114 5.222.057 2.275.121 4.55.181 6.825.005.196.001.392.001.697-.937 0-1.84.02-2.739-.022-.134-.006-.297-.283-.375-.465-.755-1.767-1.373-3.604-2.263-5.3-1.879-3.581-4.551-6.369-8.542-7.588-2.248-.686-4.547-.667-6.85-.226-1.826.35-3.452 1.086-4.724 2.462-.501.541-.862 1.209-1.316 1.796-.139.18-.373.405-.566.407-2.718.025-5.436.016-8.154.011-.05.002-.1-.037-.233-.094z"></path>
		</g>
		<linearGradient id="laha-logo-dark_svg__B" gradientUnits="userSpaceOnUse" x1="393.386" y1="143.064" x2="534.146" y2="143.064">
			<stop offset="0" style="stop-color:#b27f2a"></stop>
			<stop offset="0.058" style="stop-color:#b7862e"></stop>
			<stop offset="0.14" style="stop-color:#c49939"></stop>
			<stop offset="0.238" style="stop-color:#dab84c"></stop>
			<stop offset="0.333" style="stop-color:#f4dd62"></stop>
			<stop offset="0.516" style="stop-color:#f4e38b"></stop>
			<stop offset="0.661" style="stop-color:#f4dd62"></stop>
			<stop offset="1" style="stop-color:#b27f2a"></stop>
		</linearGradient>
		<path fill="url(#laha-logo-dark_svg__B)" d="m534.146 136.362-69.905-69.904-.476-.476-69.904 69.904-.476.476 60.964 60.965-59.59-48.086-.899 1 69.428 69.428.476.476 69.904-69.904.476-.476-6.701-6.701 6.703-6.702zm-70.381-68.476 68.476 68.476-5.749 5.749-62.726 62.726-68.476-68.476 68.475-68.475z"></path>
		<linearGradient id="laha-logo-dark_svg__C" gradientUnits="userSpaceOnUse" x1="398.698" y1="136.362" x2="528.832" y2="136.362">
			<stop offset="0" style="stop-color:#b27f2a"></stop>
			<stop offset="0.058" style="stop-color:#b7862e"></stop>
			<stop offset="0.14" style="stop-color:#c49939"></stop>
			<stop offset="0.238" style="stop-color:#dab84c"></stop>
			<stop offset="0.333" style="stop-color:#f4dd62"></stop>
			<stop offset="0.516" style="stop-color:#f4e38b"></stop>
			<stop offset="0.661" style="stop-color:#f4dd62"></stop>
			<stop offset="1" style="stop-color:#b27f2a"></stop>
		</linearGradient>
		<path fill="url(#laha-logo-dark_svg__C)" d="m528.832 136.362-65.067-65.067-65.067 65.067 65.067 65.067 65.067-65.067zm-65.067-64.114 64.114 64.114-64.114 64.114-64.114-64.114 64.114-64.114z"></path>
		<linearGradient id="laha-logo-dark_svg__D" gradientUnits="userSpaceOnUse" x1="444.445" y1="168.441" x2="444.471" y2="168.441">
			<stop offset="0" style="stop-color:#b27f2a"></stop>
			<stop offset="0.058" style="stop-color:#b7862e"></stop>
			<stop offset="0.14" style="stop-color:#c49939"></stop>
			<stop offset="0.238" style="stop-color:#dab84c"></stop>
			<stop offset="0.333" style="stop-color:#f4dd62"></stop>
			<stop offset="0.516" style="stop-color:#f4e38b"></stop>
			<stop offset="0.661" style="stop-color:#f4dd62"></stop>
			<stop offset="1" style="stop-color:#b27f2a"></stop>
		</linearGradient>
		<path fill="url(#laha-logo-dark_svg__D)" d="M444.445 168.445c.011 0 .021-.003.026-.009h-.009l-.017.009z"></path>
		<linearGradient id="laha-logo-dark_svg__E" gradientUnits="userSpaceOnUse" x1="490.782" y1="166.321" x2="490.791" y2="166.321">
			<stop offset="0" style="stop-color:#b27f2a"></stop>
			<stop offset="0.058" style="stop-color:#b7862e"></stop>
			<stop offset="0.14" style="stop-color:#c49939"></stop>
			<stop offset="0.238" style="stop-color:#dab84c"></stop>
			<stop offset="0.333" style="stop-color:#f4dd62"></stop>
			<stop offset="0.516" style="stop-color:#f4e38b"></stop>
			<stop offset="0.661" style="stop-color:#f4dd62"></stop>
			<stop offset="1" style="stop-color:#b27f2a"></stop>
		</linearGradient>
		<path fill="url(#laha-logo-dark_svg__E)" d="M490.79 166.319h-.004l-.004.005z"></path>
	</g>
</svg>